<svg xmlns="http://www.w3.org/2000/svg" xmlns:xlink="http://www.w3.org/1999/xlink" width="1920" zoomAndPan="magnify" viewBox="0 0 1440 809.999993" height="1080" preserveAspectRatio="xMidYMid meet" version="1.2"><defs><filter x="0%" y="0%" width="100%" filterUnits="objectBoundingBox" id="3de4e074ee" height="100%"><feColorMatrix values="0 0 0 0 1 0 0 0 0 1 0 0 0 0 1 0 0 0 1 0" type="matrix" in="SourceGraphic"/></filter><clipPath id="7b9161aee8"><path d="M 10.8125 10.632812 L 145 10.632812 L 145 227.382812 L 10.8125 227.382812 Z M 10.8125 10.632812 "/></clipPath><clipPath id="7c653215bb"><path d="M 227.5625 119.007812 C 227.5625 59.152344 179.042969 10.632812 119.1875 10.632812 C 59.335938 10.632812 10.8125 59.152344 10.8125 119.007812 C 10.8125 178.859375 59.335938 227.382812 119.1875 227.382812 C 179.042969 227.382812 227.5625 178.859375 227.5625 119.007812 Z M 227.5625 119.007812 "/></clipPath><clipPath id="dd1443770f"><rect x="0" width="145" y="0" height="238"/></clipPath><clipPath id="a26cd8e0b7"><path d="M 0 10.632812 L 93.742188 10.632812 L 93.742188 227.382812 L 0 227.382812 Z M 0 10.632812 "/></clipPath><clipPath id="533ae3ea35"><path d="M 93.742188 119.007812 C 93.742188 59.152344 45.222656 10.632812 -14.632812 10.632812 C -74.484375 10.632812 -123.007812 59.152344 -123.007812 119.007812 C -123.007812 178.859375 -74.484375 227.382812 -14.632812 227.382812 C 45.222656 227.382812 93.742188 178.859375 93.742188 119.007812 Z M 93.742188 119.007812 "/></clipPath><clipPath id="c0507de8ad"><rect x="0" width="104" y="0" height="238"/></clipPath><clipPath id="e489134d6c"><path d="M 10.535156 10.632812 L 227.285156 10.632812 L 227.285156 227.382812 L 10.535156 227.382812 Z M 10.535156 10.632812 "/></clipPath><clipPath id="fcf5de74dd"><path d="M 227.285156 119.007812 C 227.285156 59.152344 178.765625 10.632812 118.910156 10.632812 C 59.058594 10.632812 10.535156 59.152344 10.535156 119.007812 C 10.535156 178.859375 59.058594 227.382812 118.910156 227.382812 C 178.765625 227.382812 227.285156 178.859375 227.285156 119.007812 Z M 227.285156 119.007812 "/></clipPath><clipPath id="ddf184b799"><rect x="0" width="238" y="0" height="238"/></clipPath><clipPath id="aefc029fec"><path d="M 10.257812 10.632812 L 227.007812 10.632812 L 227.007812 227.382812 L 10.257812 227.382812 Z M 10.257812 10.632812 "/></clipPath><clipPath id="39e7837bf1"><path d="M 227.007812 119.007812 C 227.007812 59.152344 178.488281 10.632812 118.632812 10.632812 C 58.78125 10.632812 10.257812 59.152344 10.257812 119.007812 C 10.257812 178.859375 58.78125 227.382812 118.632812 227.382812 C 178.488281 227.382812 227.007812 178.859375 227.007812 119.007812 Z M 227.007812 119.007812 "/></clipPath><clipPath id="2461cc5819"><rect x="0" width="238" y="0" height="238"/></clipPath><clipPath id="1724611567"><path d="M 10.738281 10.632812 L 227.488281 10.632812 L 227.488281 227.382812 L 10.738281 227.382812 Z M 10.738281 10.632812 "/></clipPath><clipPath id="28a087e8cc"><path d="M 227.488281 119.007812 C 227.488281 59.152344 178.96875 10.632812 119.113281 10.632812 C 59.261719 10.632812 10.738281 59.152344 10.738281 119.007812 C 10.738281 178.859375 59.261719 227.382812 119.113281 227.382812 C 178.96875 227.382812 227.488281 178.859375 227.488281 119.007812 Z M 227.488281 119.007812 "/></clipPath><clipPath id="09188462d3"><rect x="0" width="238" y="0" height="238"/></clipPath></defs><g id="d0a1c6c0df"><rect x="0" width="1440" y="0" height="809.999993" style="fill:#ffffff;fill-opacity:1;stroke:none;"/><rect x="0" width="1440" y="0" height="809.999993" style="fill:#faf6f1;fill-opacity:1;stroke:none;"/><g mask="url(#d07833c528)" transform="matrix(1,0,0,1,1295,298)"><g clip-path="url(#dd1443770f)"><g clip-rule="nonzero" clip-path="url(#7b9161aee8)"><g clip-rule="nonzero" clip-path="url(#7c653215bb)"><path style="fill:none;stroke-width:6;stroke-linecap:butt;stroke-linejoin:miter;stroke:#000000;stroke-opacity:1;stroke-miterlimit:4;" d="M 144.57878 0.00172897 C 64.728335 0.00172897 0.000645291 64.729418 0.000645291 144.579864 C 0.000645291 224.425098 64.728335 289.157999 144.57878 289.157999 C 224.424015 289.157999 289.156915 224.425098 289.156915 144.579864 C 289.156915 64.729418 224.424015 0.00172897 144.57878 0.00172897 Z M 144.57878 0.00172897 " transform="matrix(0,0.749595,-0.749595,0,227.563796,10.632329)"/></g></g></g><mask id="d07833c528"><g filter="url(#3de4e074ee)"><rect x="0" width="1440" y="0" height="809.999993" style="fill:#000000;fill-opacity:0.5;stroke:none;"/></g></mask></g><g mask="url(#1f06b7ef01)" transform="matrix(1,0,0,1,0,298)"><g clip-path="url(#c0507de8ad)"><g clip-rule="nonzero" clip-path="url(#a26cd8e0b7)"><g clip-rule="nonzero" clip-path="url(#533ae3ea35)"><path style="fill:none;stroke-width:6;stroke-linecap:butt;stroke-linejoin:miter;stroke:#000000;stroke-opacity:1;stroke-miterlimit:4;" d="M 144.57878 0.00203257 C 64.728335 0.00203257 0.000645291 64.729722 0.000645291 144.580168 C 0.000645291 224.425402 64.728335 289.158303 144.57878 289.158303 C 224.424015 289.158303 289.156915 224.425402 289.156915 144.580168 C 289.156915 64.729722 224.424015 0.00203257 144.57878 0.00203257 Z M 144.57878 0.00203257 " transform="matrix(0,0.749595,-0.749595,0,93.743711,10.632329)"/></g></g></g><mask id="1f06b7ef01"><g filter="url(#3de4e074ee)"><rect x="0" width="1440" y="0" height="809.999993" style="fill:#000000;fill-opacity:0.5;stroke:none;"/></g></mask></g><g mask="url(#35bcf1bbf9)" transform="matrix(1,0,0,1,1145,298)"><g clip-path="url(#ddf184b799)"><g clip-rule="nonzero" clip-path="url(#e489134d6c)"><g clip-rule="nonzero" clip-path="url(#fcf5de74dd)"><path style="fill:none;stroke-width:6;stroke-linecap:butt;stroke-linejoin:miter;stroke:#000000;stroke-opacity:1;stroke-miterlimit:4;" d="M 144.57878 0.00215815 C 64.728335 0.00215815 0.000645291 64.729848 0.000645291 144.580293 C 0.000645291 224.425528 64.728335 289.158428 144.57878 289.158428 C 224.424015 289.158428 289.156915 224.425528 289.156915 144.580293 C 289.156915 64.729848 224.424015 0.00215815 144.57878 0.00215815 Z M 144.57878 0.00215815 " transform="matrix(0,0.749595,-0.749595,0,227.286774,10.632329)"/></g></g></g><mask id="35bcf1bbf9"><g filter="url(#3de4e074ee)"><rect x="0" width="1440" y="0" height="809.999993" style="fill:#000000;fill-opacity:0.41;stroke:none;"/></g></mask></g><g mask="url(#5b37baa4fb)" transform="matrix(1,0,0,1,995,298)"><g clip-path="url(#2461cc5819)"><g clip-rule="nonzero" clip-path="url(#aefc029fec)"><g clip-rule="nonzero" clip-path="url(#39e7837bf1)"><path style="fill:none;stroke-width:6;stroke-linecap:butt;stroke-linejoin:miter;stroke:#000000;stroke-opacity:1;stroke-miterlimit:4;" d="M 144.57878 0.00258412 C 64.728335 0.00258412 0.000645291 64.730274 0.000645291 144.580719 C 0.000645291 224.425954 64.728335 289.158854 144.57878 289.158854 C 224.424015 289.158854 289.156915 224.425954 289.156915 144.580719 C 289.156915 64.730274 224.424015 0.00258412 144.57878 0.00258412 Z M 144.57878 0.00258412 " transform="matrix(0,0.749595,-0.749595,0,227.00975,10.632329)"/></g></g></g><mask id="5b37baa4fb"><g filter="url(#3de4e074ee)"><rect x="0" width="1440" y="0" height="809.999993" style="fill:#000000;fill-opacity:0.26;stroke:none;"/></g></mask></g><g mask="url(#4f19a06db7)" transform="matrix(1,0,0,1,857,298)"><g clip-path="url(#09188462d3)"><g clip-rule="nonzero" clip-path="url(#1724611567)"><g clip-rule="nonzero" clip-path="url(#28a087e8cc)"><path style="fill:none;stroke-width:6;stroke-linecap:butt;stroke-linejoin:miter;stroke:#000000;stroke-opacity:1;stroke-miterlimit:4;" d="M 144.57878 0.00243547 C 64.728335 0.00243547 0.000645291 64.730125 0.000645291 144.58057 C 0.000645291 224.425805 64.728335 289.158705 144.57878 289.158705 C 224.424015 289.158705 289.156915 224.425805 289.156915 144.58057 C 289.156915 64.730125 224.424015 0.00243547 144.57878 0.00243547 Z M 144.57878 0.00243547 " transform="matrix(0,0.749595,-0.749595,0,227.490107,10.632329)"/></g></g></g><mask id="4f19a06db7"><g filter="url(#3de4e074ee)"><rect x="0" width="1440" y="0" height="809.999993" style="fill:#000000;fill-opacity:0.11;stroke:none;"/></g></mask></g></g></svg>