<svg xmlns="http://www.w3.org/2000/svg" xmlns:xlink="http://www.w3.org/1999/xlink" width="1920" zoomAndPan="magnify" viewBox="0 0 1440 809.999993" height="1080" preserveAspectRatio="xMidYMid meet" version="1.2"><defs><clipPath id="b687e81fef"><path d="M 873.554688 197.726562 L 1288.097656 197.726562 L 1288.097656 612.273438 L 873.554688 612.273438 Z M 873.554688 197.726562 "/></clipPath><clipPath id="cdedcc9f15"><path d="M 1080.824219 197.726562 C 966.351562 197.726562 873.554688 290.527344 873.554688 405 C 873.554688 519.472656 966.351562 612.273438 1080.824219 612.273438 C 1195.296875 612.273438 1288.097656 519.472656 1288.097656 405 C 1288.097656 290.527344 1195.296875 197.726562 1080.824219 197.726562 Z M 1080.824219 197.726562 "/></clipPath><clipPath id="70ab98cf0a"><path d="M 907.089844 314.859375 L 1184.90625 314.859375 L 1184.90625 592.679688 L 907.089844 592.679688 Z M 907.089844 314.859375 "/></clipPath><clipPath id="edf679ecca"><path d="M 1045.996094 314.859375 C 969.28125 314.859375 907.089844 377.050781 907.089844 453.769531 C 907.089844 530.488281 969.28125 592.679688 1045.996094 592.679688 C 1122.714844 592.679688 1184.90625 530.488281 1184.90625 453.769531 C 1184.90625 377.050781 1122.714844 314.859375 1045.996094 314.859375 Z M 1045.996094 314.859375 "/></clipPath><clipPath id="ff044e931b"><path d="M 955.976562 491.402344 L 1045.976562 491.402344 L 1045.976562 581.402344 L 955.976562 581.402344 Z M 955.976562 491.402344 "/></clipPath></defs><g id="779e991e06"><g clip-rule="nonzero" clip-path="url(#b687e81fef)"><g clip-rule="nonzero" clip-path="url(#cdedcc9f15)"><path style=" stroke:none;fill-rule:nonzero;fill:#8b93ff;fill-opacity:1;" d="M 873.554688 197.726562 L 1288.097656 197.726562 L 1288.097656 612.273438 L 873.554688 612.273438 Z M 873.554688 197.726562 "/></g></g><g clip-rule="nonzero" clip-path="url(#70ab98cf0a)"><g clip-rule="nonzero" clip-path="url(#edf679ecca)"><path style=" stroke:none;fill-rule:nonzero;fill:#fb923c;fill-opacity:1;" d="M 907.089844 314.859375 L 1184.90625 314.859375 L 1184.90625 592.679688 L 907.089844 592.679688 Z M 907.089844 314.859375 "/></g></g><g clip-rule="nonzero" clip-path="url(#ff044e931b)"><path style=" stroke:none;fill-rule:nonzero;fill:#fc7c82;fill-opacity:1;" d="M 1000.976562 581.402344 C 976.226562 581.402344 955.976562 561.152344 955.976562 536.402344 C 955.976562 511.652344 976.226562 491.402344 1000.976562 491.402344 C 1025.726562 491.402344 1045.976562 511.652344 1045.976562 536.402344 C 1045.976562 561.152344 1025.726562 581.402344 1000.976562 581.402344 Z M 1000.976562 581.402344 "/></g></g></svg>