<svg xmlns="http://www.w3.org/2000/svg" xmlns:xlink="http://www.w3.org/1999/xlink" width="1920" zoomAndPan="magnify" viewBox="0 0 1440 809.999993" height="1080" preserveAspectRatio="xMidYMid meet" version="1.2"><defs><filter x="0%" y="0%" width="100%" filterUnits="objectBoundingBox" id="45538c9003" height="100%"><feColorMatrix values="0 0 0 0 1 0 0 0 0 1 0 0 0 0 1 0 0 0 1 0" type="matrix" in="SourceGraphic"/></filter><clipPath id="efcfbb0745"><path d="M 10.8125 10.632812 L 145 10.632812 L 145 227.382812 L 10.8125 227.382812 Z M 10.8125 10.632812 "/></clipPath><clipPath id="b751994751"><path d="M 227.5625 119.007812 C 227.5625 59.152344 179.042969 10.632812 119.1875 10.632812 C 59.335938 10.632812 10.8125 59.152344 10.8125 119.007812 C 10.8125 178.859375 59.335938 227.382812 119.1875 227.382812 C 179.042969 227.382812 227.5625 178.859375 227.5625 119.007812 Z M 227.5625 119.007812 "/></clipPath><clipPath id="c4a3c24acb"><rect x="0" width="145" y="0" height="238"/></clipPath><clipPath id="278b63f256"><path d="M 0 10.632812 L 93.742188 10.632812 L 93.742188 227.382812 L 0 227.382812 Z M 0 10.632812 "/></clipPath><clipPath id="1e1abb9ae3"><path d="M 93.742188 119.007812 C 93.742188 59.152344 45.222656 10.632812 -14.632812 10.632812 C -74.484375 10.632812 -123.007812 59.152344 -123.007812 119.007812 C -123.007812 178.859375 -74.484375 227.382812 -14.632812 227.382812 C 45.222656 227.382812 93.742188 178.859375 93.742188 119.007812 Z M 93.742188 119.007812 "/></clipPath><clipPath id="61dbea8481"><rect x="0" width="104" y="0" height="238"/></clipPath><clipPath id="0f59d9f59f"><path d="M 10.535156 10.632812 L 227.285156 10.632812 L 227.285156 227.382812 L 10.535156 227.382812 Z M 10.535156 10.632812 "/></clipPath><clipPath id="924996b6c1"><path d="M 227.285156 119.007812 C 227.285156 59.152344 178.765625 10.632812 118.910156 10.632812 C 59.058594 10.632812 10.535156 59.152344 10.535156 119.007812 C 10.535156 178.859375 59.058594 227.382812 118.910156 227.382812 C 178.765625 227.382812 227.285156 178.859375 227.285156 119.007812 Z M 227.285156 119.007812 "/></clipPath><clipPath id="9880900f0c"><rect x="0" width="238" y="0" height="238"/></clipPath><clipPath id="8b301adc28"><path d="M 10.257812 10.632812 L 227.007812 10.632812 L 227.007812 227.382812 L 10.257812 227.382812 Z M 10.257812 10.632812 "/></clipPath><clipPath id="77ace688a0"><path d="M 227.007812 119.007812 C 227.007812 59.152344 178.488281 10.632812 118.632812 10.632812 C 58.78125 10.632812 10.257812 59.152344 10.257812 119.007812 C 10.257812 178.859375 58.78125 227.382812 118.632812 227.382812 C 178.488281 227.382812 227.007812 178.859375 227.007812 119.007812 Z M 227.007812 119.007812 "/></clipPath><clipPath id="f509174e1f"><rect x="0" width="238" y="0" height="238"/></clipPath><clipPath id="ded3d15b0f"><path d="M 10.738281 10.632812 L 227.488281 10.632812 L 227.488281 227.382812 L 10.738281 227.382812 Z M 10.738281 10.632812 "/></clipPath><clipPath id="a508c1985c"><path d="M 227.488281 119.007812 C 227.488281 59.152344 178.96875 10.632812 119.113281 10.632812 C 59.261719 10.632812 10.738281 59.152344 10.738281 119.007812 C 10.738281 178.859375 59.261719 227.382812 119.113281 227.382812 C 178.96875 227.382812 227.488281 178.859375 227.488281 119.007812 Z M 227.488281 119.007812 "/></clipPath><clipPath id="c83c5343f2"><rect x="0" width="238" y="0" height="238"/></clipPath></defs><g id="f12e89d911"><g mask="url(#a117ba123f)" transform="matrix(1,0,0,1,1295,298)"><g clip-path="url(#c4a3c24acb)"><g clip-rule="nonzero" clip-path="url(#efcfbb0745)"><g clip-rule="nonzero" clip-path="url(#b751994751)"><path style="fill:none;stroke-width:6;stroke-linecap:butt;stroke-linejoin:miter;stroke:#000000;stroke-opacity:1;stroke-miterlimit:4;" d="M 144.57878 0.00172897 C 64.728335 0.00172897 0.000645291 64.729418 0.000645291 144.579864 C 0.000645291 224.425098 64.728335 289.157999 144.57878 289.157999 C 224.424015 289.157999 289.156915 224.425098 289.156915 144.579864 C 289.156915 64.729418 224.424015 0.00172897 144.57878 0.00172897 Z M 144.57878 0.00172897 " transform="matrix(0,0.749595,-0.749595,0,227.563796,10.632329)"/></g></g></g><mask id="a117ba123f"><g filter="url(#45538c9003)"><rect x="0" width="1440" y="0" height="809.999993" style="fill:#000000;fill-opacity:0.5;stroke:none;"/></g></mask></g><g mask="url(#63d182fcfb)" transform="matrix(1,0,0,1,0,298)"><g clip-path="url(#61dbea8481)"><g clip-rule="nonzero" clip-path="url(#278b63f256)"><g clip-rule="nonzero" clip-path="url(#1e1abb9ae3)"><path style="fill:none;stroke-width:6;stroke-linecap:butt;stroke-linejoin:miter;stroke:#000000;stroke-opacity:1;stroke-miterlimit:4;" d="M 144.57878 0.00203257 C 64.728335 0.00203257 0.000645291 64.729722 0.000645291 144.580168 C 0.000645291 224.425402 64.728335 289.158303 144.57878 289.158303 C 224.424015 289.158303 289.156915 224.425402 289.156915 144.580168 C 289.156915 64.729722 224.424015 0.00203257 144.57878 0.00203257 Z M 144.57878 0.00203257 " transform="matrix(0,0.749595,-0.749595,0,93.743711,10.632329)"/></g></g></g><mask id="63d182fcfb"><g filter="url(#45538c9003)"><rect x="0" width="1440" y="0" height="809.999993" style="fill:#000000;fill-opacity:0.5;stroke:none;"/></g></mask></g><g mask="url(#b216a02a24)" transform="matrix(1,0,0,1,1145,298)"><g clip-path="url(#9880900f0c)"><g clip-rule="nonzero" clip-path="url(#0f59d9f59f)"><g clip-rule="nonzero" clip-path="url(#924996b6c1)"><path style="fill:none;stroke-width:6;stroke-linecap:butt;stroke-linejoin:miter;stroke:#000000;stroke-opacity:1;stroke-miterlimit:4;" d="M 144.57878 0.00215815 C 64.728335 0.00215815 0.000645291 64.729848 0.000645291 144.580293 C 0.000645291 224.425528 64.728335 289.158428 144.57878 289.158428 C 224.424015 289.158428 289.156915 224.425528 289.156915 144.580293 C 289.156915 64.729848 224.424015 0.00215815 144.57878 0.00215815 Z M 144.57878 0.00215815 " transform="matrix(0,0.749595,-0.749595,0,227.286774,10.632329)"/></g></g></g><mask id="b216a02a24"><g filter="url(#45538c9003)"><rect x="0" width="1440" y="0" height="809.999993" style="fill:#000000;fill-opacity:0.41;stroke:none;"/></g></mask></g><g mask="url(#531dbffb0c)" transform="matrix(1,0,0,1,995,298)"><g clip-path="url(#f509174e1f)"><g clip-rule="nonzero" clip-path="url(#8b301adc28)"><g clip-rule="nonzero" clip-path="url(#77ace688a0)"><path style="fill:none;stroke-width:6;stroke-linecap:butt;stroke-linejoin:miter;stroke:#000000;stroke-opacity:1;stroke-miterlimit:4;" d="M 144.57878 0.00258412 C 64.728335 0.00258412 0.000645291 64.730274 0.000645291 144.580719 C 0.000645291 224.425954 64.728335 289.158854 144.57878 289.158854 C 224.424015 289.158854 289.156915 224.425954 289.156915 144.580719 C 289.156915 64.730274 224.424015 0.00258412 144.57878 0.00258412 Z M 144.57878 0.00258412 " transform="matrix(0,0.749595,-0.749595,0,227.00975,10.632329)"/></g></g></g><mask id="531dbffb0c"><g filter="url(#45538c9003)"><rect x="0" width="1440" y="0" height="809.999993" style="fill:#000000;fill-opacity:0.26;stroke:none;"/></g></mask></g><g mask="url(#e4aee5d2ec)" transform="matrix(1,0,0,1,857,298)"><g clip-path="url(#c83c5343f2)"><g clip-rule="nonzero" clip-path="url(#ded3d15b0f)"><g clip-rule="nonzero" clip-path="url(#a508c1985c)"><path style="fill:none;stroke-width:6;stroke-linecap:butt;stroke-linejoin:miter;stroke:#000000;stroke-opacity:1;stroke-miterlimit:4;" d="M 144.57878 0.00243547 C 64.728335 0.00243547 0.000645291 64.730125 0.000645291 144.58057 C 0.000645291 224.425805 64.728335 289.158705 144.57878 289.158705 C 224.424015 289.158705 289.156915 224.425805 289.156915 144.58057 C 289.156915 64.730125 224.424015 0.00243547 144.57878 0.00243547 Z M 144.57878 0.00243547 " transform="matrix(0,0.749595,-0.749595,0,227.490107,10.632329)"/></g></g></g><mask id="e4aee5d2ec"><g filter="url(#45538c9003)"><rect x="0" width="1440" y="0" height="809.999993" style="fill:#000000;fill-opacity:0.11;stroke:none;"/></g></mask></g></g></svg>